# xmcd CD database file
#
# Track frame offsets:
#	150
#	11290
#	23982
#	37190
#	50620
#	61547
#	76242
#	89740
#	104840
#	115490
#	131670
#	150982
#	164807
#	179160
#	196550
#
# Disc length: 2870 seconds
#
# Revision: 0
# Processed by: cddbd v1.4PL0 Copyright (c) Steve Scherf et al.
# Submitted via: CDex 1.50beta9
#
DISCID=cb0b340f
DTITLE=Johnny Loughrey - The Cold Hard Truth
DYEAR=1900
DGENRE=Country
TTITLE0=Lonesome Number One
TTITLE1=I Don't Pass There Any More
TTITLE2=It Ain't Over
TTITLE3=I'll Be Faithful To You
TTITLE4=Do You Wanna Be My Girl
TTITLE5=A Couple More Years
TTITLE6=Catfish John
TTITLE7=Shen Knows When You Are On My Mind
TTITLE8=Country Music Puts A Big Smile On Your Face
TTITLE9=For Reasons I've Forgotten
TTITLE10=Kilconly
TTITLE11=Just One More Time
TTITLE12=Welcome To My World
TTITLE13=Diane
TTITLE14=The Cold Hard Truth
EXTD=
EXTT0=
EXTT1=
EXTT2=
EXTT3=
EXTT4=
EXTT5=
EXTT6=
EXTT7=
EXTT8=
EXTT9=
EXTT10=
EXTT11=
EXTT12=
EXTT13=
EXTT14=
PLAYORDER=
